<?xml version="1.0" encoding="utf-8"?>
<!-- Generator: Adobe Illustrator 24.3.0, SVG Export Plug-In . SVG Version: 6.00 Build 0)  -->
<svg version="1.1" id="Laag_1" xmlns="http://www.w3.org/2000/svg" xmlns:xlink="http://www.w3.org/1999/xlink" x="0px" y="0px"
	 viewBox="0 0 595.3 430.9" style="enable-background:new 0 0 595.3 430.9;" xml:space="preserve">
<style type="text/css">
	.st0{fill:#FFC0CB;}
</style>
<g>
	<path class="st0" d="M297.5,354.8c-12.3,0-24.5,0-36.8,0c-1.8,0-3.4-0.4-4.9-1.5c-26.3-18.6-52.7-37.1-79.1-55.5
		c-2-1.4-2.7-3-2.5-5.4c1.6-24.1,3.1-48.2,4.6-72.3c1.4-22,2.9-44.1,4.4-66.1c0-0.7,0.2-1.7,0.6-2c2.1-1.3,2-3.5,2.4-5.4
		c3.4-16.4,9.1-32,19-45.7c15.5-21.4,36.6-34.9,62.2-41.3c27.8-7,54.9-4.7,80.9,7.2c19.7,9,35.6,22.6,46.6,41.5
		c7.2,12.5,11.8,26,14.6,40.2c0.2,1.1,1.2,2.1,1.7,3.1c0.4,0.7,0.8,1.4,0.9,2.2c1.2,18.6,2.4,37.2,3.6,55.7c1.2,19,2.5,38,3.8,57.1
		c0.6,8.9,1.1,17.8,1.7,26.8c0.1,2-0.8,3.3-2.4,4.4c-26.3,18.4-52.6,36.9-78.9,55.4c-1.8,1.3-3.5,1.8-5.7,1.8
		C321.9,354.8,309.7,354.8,297.5,354.8z M188.8,292.6c0.1-0.5,0.2-1,0.3-1.5c0.5-6,0.9-11.9,1.4-17.9c1-12.5,2-25,3-37.6
		c1-12.4,1.9-24.9,2.9-37.3c0.4-4.4,0.5-4.4,4.8-4.2c15.4,0.7,27.9,7.1,37.4,19.1c8.1,10.1,12.8,21.9,16.1,34.2
		c5.4,20.2,7.4,40.8,8.4,61.6c0.5,10.4,0.6,20.8,0.8,31.2c0,1.7,0.6,2.4,2.3,2.4c2-0.1,4-0.1,6,0c2,0.1,2.9-0.6,2.9-2.8
		c0-47.2,0-94.3,0-141.5c0-1.9-0.6-3-2.6-3.5c-23.7-6.3-47.2-13.3-71.7-15.5c-1.7-0.2-2.1-0.9-2-2.4c0.1-4.1,0.1-8.1,0.2-12.2
		c0.1-3.5,0.1-3.5,3.7-3.5c63.4,0,126.9,0,190.3,0c0.5,0,1,0,1.6,0c1.4-0.1,2,0.5,2,1.9c0,4.6,0.1,9.2,0.3,13.7
		c0.1,1.8-0.6,2.3-2.3,2.4c-3.8,0.3-7.5,0.7-11.2,1.3c-19.9,3.3-39.4,8.4-58.8,13.8c-4,1.1-4,1.1-4,5.3c0,41.3,0,82.7,0,124
		c0,5.3,0,10.6,0,16c0,2.7,0.2,3,2.8,3c1.7,0,3.4,0,5.1,0c3,0,3.1-0.1,3.2-3.1c0.2-8.8,0.3-17.6,0.6-26.4
		c0.7-18.3,2.2-36.6,5.9-54.6c2.7-13.2,6.6-26,13.5-37.8c5.9-10,13.7-17.9,24.5-22.7c6.7-2.9,13.7-4,20.9-4.4
		c1.5-0.1,1.8,0.8,1.9,2.1c0.3,4.7,0.7,9.4,1.1,14.1c1.1,14.2,2.2,28.4,3.3,42.6c1,12.4,1.9,24.8,2.8,37.1c0.1,0.9,0.2,1.8,0.4,2.8
		c3.7-1.4,4.8-3.1,4.6-6.5c-1.3-17.5-2.6-34.9-3.8-52.4c-1.9-25.6-3.7-51.1-5.6-76.7c-0.2-3.2-0.2-3.2-3.4-3.2
		c-66.3,0-132.6,0-198.9,0c-1,0-1.9,0.1-2.9,0c-1.8-0.1-2.4,0.6-2.5,2.4c-1.4,19.8-2.9,39.5-4.3,59.2c-1.7,23.6-3.4,47.2-5.2,70.7
		C184,289.5,185.3,291.3,188.8,292.6z"/>
</g>
</svg>
